<?xml version="1.0" encoding="UTF-8" standalone="no"?>
<svg
   xmlns:dc="http://purl.org/dc/elements/1.1/"
   xmlns:cc="http://creativecommons.org/ns#"
   xmlns:rdf="http://www.w3.org/1999/02/22-rdf-syntax-ns#"
   xmlns:svg="http://www.w3.org/2000/svg"
   xmlns="http://www.w3.org/2000/svg"
   xmlns:sodipodi="http://sodipodi.sourceforge.net/DTD/sodipodi-0.dtd"
   xmlns:inkscape="http://www.inkscape.org/namespaces/inkscape"
   height="18"
   width="18"
   version="1.1"
   id="Layer_1"
   x="0px"
   y="0px"
   viewBox="0 0 18 18"
   xml:space="preserve"
   sodipodi:docname="tick.svg"
   inkscape:version="1.0beta2 (2b71d25, 2019-12-03)"><metadata
   id="metadata874"><rdf:RDF><cc:Work
       rdf:about=""><dc:format>image/svg+xml</dc:format><dc:type
         rdf:resource="http://purl.org/dc/dcmitype/StillImage" /><dc:title></dc:title></cc:Work></rdf:RDF></metadata><defs
   id="defs872" /><sodipodi:namedview
   pagecolor="#ffffff"
   bordercolor="#666666"
   inkscape:document-rotation="0"
   borderopacity="1"
   objecttolerance="10"
   gridtolerance="10"
   guidetolerance="10"
   inkscape:pageopacity="0"
   inkscape:pageshadow="2"
   inkscape:window-width="1209"
   inkscape:window-height="770"
   id="namedview870"
   showgrid="false"
   inkscape:zoom="1.1249623"
   inkscape:cx="-34.343145"
   inkscape:cy="57.495787"
   inkscape:window-x="0"
   inkscape:window-y="23"
   inkscape:window-maximized="0"
   inkscape:current-layer="Layer_1" />
<g
   transform="scale(0.03515625)"
   id="g837"
   style="fill:#ffffff;fill-opacity:1">
	<g
   id="g835"
   style="fill:#ffffff;fill-opacity:1">
		<path
   inkscape:connector-curvature="0"
   d="M 256,0 C 114.615,0 0,114.615 0,256 0,397.385 114.615,512 256,512 397.385,512 512,397.385 512,256 512,114.615 397.385,0 256,0 Z M 386.594,226.664 252.747,360.511 c -7.551,7.551 -17.795,11.794 -28.475,11.794 -10.68,0 -20.923,-4.243 -28.475,-11.795 l -70.388,-70.389 c -15.726,-15.726 -15.726,-41.223 10e-4,-56.95 15.727,-15.725 41.224,-15.726 56.95,0.001 l 41.913,41.915 105.371,-105.371 c 15.727,-15.726 41.223,-15.726 56.951,0.001 15.724,15.723 15.724,41.221 -0.001,56.947 z"
   id="path833"
   style="fill:#ffffff;fill-opacity:1" />
	</g>
</g>
<g
   transform="scale(1.5)"
   id="g839">
</g>
<g
   transform="scale(1.5)"
   id="g841">
</g>
<g
   transform="scale(1.5)"
   id="g843">
</g>
<g
   transform="scale(1.5)"
   id="g845">
</g>
<g
   transform="scale(1.5)"
   id="g847">
</g>
<g
   transform="scale(1.5)"
   id="g849">
</g>
<g
   transform="scale(1.5)"
   id="g851">
</g>
<g
   transform="scale(1.5)"
   id="g853">
</g>
<g
   transform="scale(1.5)"
   id="g855">
</g>
<g
   transform="scale(1.5)"
   id="g857">
</g>
<g
   transform="scale(1.5)"
   id="g859">
</g>
<g
   transform="scale(1.5)"
   id="g861">
</g>
<g
   transform="scale(1.5)"
   id="g863">
</g>
<g
   transform="scale(1.5)"
   id="g865">
</g>
<g
   transform="scale(1.5)"
   id="g867">
</g>
</svg>
